<svg width="139" height="48" viewBox="0 0 139 48" fill="none" xmlns="http://www.w3.org/2000/svg">
<path d="M40.4995 0C44.754 0 48.9342 1.29875 52.3441 3.8356C54.1932 5.21075 55.9071 6.77914 57.4409 8.31832C62.0558 12.9516 65.04 19.1106 65.1707 25.5999C65.3216 33.0576 65.2382 40.5378 65.2112 47.9978H59.5535C59.5468 42.4747 59.5355 36.9538 59.558 31.4308C59.5693 28.3996 59.3689 25.3707 58.8779 22.3799C58.5535 20.4026 58.1008 18.4297 57.0535 16.6636C53.1842 10.1361 47.6909 5.49162 39.8103 5.51858H25.4477C23.6189 5.51184 21.9161 5.75901 20.3351 6.21964C15.1053 7.74984 11.1752 11.6506 8.20444 16.6614C7.15714 18.4275 6.70444 20.4003 6.38011 22.3777C5.88912 25.3684 5.68867 28.3973 5.69993 31.4285C5.72246 36.9493 5.71119 42.4724 5.70444 47.9955H0.0490313C0.019752 40.5355 -0.0635813 33.0531 0.0895718 25.5976C0.220202 19.1106 3.20444 12.9493 7.8193 8.31608C9.24047 6.88924 10.8193 5.43769 12.5152 4.13669C16.0265 1.44706 20.3396 0 24.7698 0H40.4972H40.4995Z" fill="#042538"/>
<path d="M16.5918 26.4313C16.6143 20.8588 20.9725 16.0795 26.8666 16.2435C30.5761 16.3469 34.2923 16.2188 38.0062 16.2682C42.9049 16.3334 47.9747 21.2318 48.2495 26.11C48.254 26.1796 48.2517 26.2605 48.245 26.3414C48.2247 26.5864 48.1504 26.8515 48.0085 26.9481C47.1031 27.5638 46.1707 28.1413 45.2405 28.7165C44.763 29.0131 44.1324 28.7659 43.986 28.2244L43.977 28.1907C42.9432 24.3439 40.6346 21.5599 36.6053 21.0543C34.1391 20.7442 26.9026 20.9891 23.5963 21.1105C23.1459 21.1262 22.79 21.4969 22.79 21.9463V24.9101C22.79 25.3685 23.1571 25.7415 23.6143 25.7482C26.0288 25.7909 32.8013 25.9347 34.495 25.9594C37.263 25.9976 39.549 28.53 39.2585 31.2668C39.2022 31.8016 39.0107 32.5094 38.6279 32.788C37.3058 33.752 35.9274 34.6395 34.4387 35.6057C33.8779 35.9697 33.1369 35.5698 33.1369 34.9024V30.8893C33.1369 30.4309 32.7698 30.0579 32.3103 30.0512C31.4026 30.0377 30.1887 30.0085 29.3869 29.9883C28.9161 29.977 28.5355 30.3478 28.5355 30.8174C28.54 33.188 28.5558 40.2143 28.5693 48.0001H33.1008C33.1008 45.6048 33.0963 43.7488 33.0963 42.9197C33.0963 42.6253 33.2517 42.3534 33.504 42.2029L53.4387 30.2489C53.7247 30.0782 53.8824 29.7568 53.8396 29.4265C53.6729 28.0941 53.227 24.6697 52.8981 23.3215C51.2607 16.6098 45.2044 11.4844 38.29 11.1631C33.8914 10.9586 29.4747 11.1586 25.067 11.199C24.754 11.2013 24.2427 11.2395 23.9342 11.2956C16.6684 12.6236 11.3396 18.9331 11.3148 26.3212C11.29 33.5475 11.3283 40.7738 11.3058 48.0001H16.5693C16.5693 40.8097 16.5625 33.6216 16.5941 26.4313H16.5918Z" fill="#042538"/>
<path d="M72.191 9.7206C72.191 9.61948 72.2271 9.53634 72.2991 9.47118C72.3712 9.40602 72.4613 9.37231 72.5717 9.37231H74.8892C75.2383 9.37231 75.5491 9.44422 75.8172 9.59027C76.0874 9.73633 76.2969 9.93855 76.4433 10.1992C76.5897 10.4599 76.6662 10.7609 76.6662 11.098C76.6662 11.435 76.5942 11.7519 76.4478 12.017C76.3014 12.2822 76.0942 12.4844 75.8239 12.6259C75.5536 12.7675 75.2428 12.8394 74.887 12.8394H72.9343V14.3674C72.9343 14.5673 72.8712 14.7201 72.7428 14.8257C72.6167 14.9313 72.4298 14.983 72.1865 14.983V9.7161L72.191 9.7206ZM74.8892 12.1855C75.2068 12.1855 75.459 12.0889 75.6437 11.8957C75.8284 11.7024 75.9208 11.4373 75.9208 11.1002C75.9208 10.7632 75.8262 10.5138 75.6392 10.3205C75.4523 10.1273 75.2023 10.0307 74.8892 10.0307H72.9365V12.1855H74.8892Z" fill="#042538"/>
<path d="M79.1707 9.92041C79.1707 9.72043 79.2338 9.56763 79.3599 9.46203C79.486 9.35642 79.673 9.30249 79.9162 9.30249V11.7966H82.7338V9.92041C82.7338 9.72043 82.7968 9.56763 82.9252 9.46203C83.0513 9.35642 83.2383 9.30249 83.4815 9.30249V14.3717C83.4815 14.5717 83.4185 14.7245 83.2901 14.8301C83.1639 14.9357 82.977 14.9874 82.7338 14.9874V12.4528H79.9162V14.3694C79.9162 14.5694 79.8531 14.7222 79.7248 14.8278C79.5986 14.9334 79.4117 14.9851 79.1685 14.9851V9.91592L79.1707 9.92041Z" fill="#042538"/>
<path d="M87.0896 14.7312C86.7428 14.5604 86.4725 14.3222 86.2766 14.0189C86.0806 13.7156 85.9838 13.3785 85.9838 13.01V11.2686C85.9838 10.8978 86.0829 10.5653 86.2766 10.2664C86.4725 9.9676 86.745 9.73391 87.0896 9.56089C87.4365 9.39012 87.8284 9.30249 88.2676 9.30249C88.7067 9.30249 89.1076 9.38787 89.4545 9.56089C89.8013 9.73166 90.0716 9.9676 90.2676 10.2664C90.4635 10.5653 90.5603 10.8978 90.5603 11.2686V13.01C90.5603 13.3808 90.4612 13.7156 90.2676 14.0189C90.0716 14.3222 89.7991 14.5604 89.45 14.7312C89.1009 14.902 88.7067 14.9896 88.2676 14.9896C87.8284 14.9896 87.4342 14.9042 87.0896 14.7312ZM89.4207 13.974C89.6955 13.7313 89.8329 13.4055 89.8329 12.9988V11.2798C89.8329 10.8731 89.6955 10.5496 89.4207 10.3091C89.1459 10.0687 88.7608 9.94962 88.2698 9.94962C87.7788 9.94962 87.4004 10.071 87.1257 10.3091C86.8509 10.5496 86.7135 10.8731 86.7135 11.2798V12.9988C86.7135 13.4055 86.8509 13.7313 87.1257 13.974C87.4004 14.2166 87.7811 14.338 88.2698 14.338C88.7585 14.338 89.1459 14.2166 89.4207 13.974Z" fill="#042538"/>
<path d="M94.2068 10.0307H92.2699C92.2699 9.59252 92.4771 9.37231 92.8893 9.37231H96.8825C96.8825 9.81048 96.6753 10.0307 96.2631 10.0307H94.9523V14.3718C94.9523 14.5718 94.8893 14.7246 94.7609 14.8302C94.6348 14.9358 94.4478 14.9875 94.2046 14.9875V10.0284L94.2068 10.0307Z" fill="#042538"/>
<path d="M99.6978 14.7312C99.3509 14.5604 99.0807 14.3222 98.8847 14.0189C98.6888 13.7156 98.5919 13.3785 98.5919 13.01V11.2686C98.5919 10.8978 98.691 10.5653 98.8847 10.2664C99.0807 9.9676 99.3532 9.73391 99.6978 9.56089C100.045 9.39012 100.437 9.30249 100.876 9.30249C101.315 9.30249 101.716 9.38787 102.063 9.56089C102.409 9.73166 102.68 9.9676 102.876 10.2664C103.072 10.5653 103.168 10.8978 103.168 11.2686V13.01C103.168 13.3808 103.069 13.7156 102.876 14.0189C102.68 14.3222 102.407 14.5604 102.058 14.7312C101.709 14.902 101.315 14.9896 100.876 14.9896C100.437 14.9896 100.042 14.9042 99.6978 14.7312ZM102.027 13.974C102.301 13.7313 102.439 13.4055 102.439 12.9988V11.2798C102.439 10.8731 102.301 10.5496 102.027 10.3091C101.752 10.0687 101.367 9.94962 100.876 9.94962C100.385 9.94962 100.006 10.071 99.7316 10.3091C99.4568 10.5496 99.3194 10.8731 99.3194 11.2798V12.9988C99.3194 13.4055 99.4568 13.7313 99.7316 13.974C100.006 14.2166 100.387 14.338 100.876 14.338C101.364 14.338 101.752 14.2166 102.027 13.974Z" fill="#042538"/>
<path d="M105.671 9.94293C105.671 9.74295 105.734 9.58566 105.858 9.47106C105.982 9.35647 106.155 9.30029 106.378 9.30029L109.459 13.974L109.515 13.9268L109.286 13.5471V9.30029C109.529 9.30029 109.714 9.35422 109.837 9.45983C109.961 9.56544 110.024 9.71823 110.024 9.91821V14.4009C110.024 14.5695 109.966 14.7088 109.846 14.8211C109.727 14.9312 109.576 14.9874 109.392 14.9874L106.241 10.2103L106.184 10.2575L106.414 10.6372V14.3672C106.414 14.5672 106.351 14.72 106.227 14.8256C106.103 14.9312 105.919 14.9829 105.675 14.9829V9.93844L105.671 9.94293Z" fill="#042538"/>
<path d="M72.1909 33.4105C72.1909 33.3094 72.227 33.2263 72.299 33.1611C72.3711 33.096 72.4612 33.0623 72.5715 33.0623H74.763C75.2765 33.0623 75.6842 33.2106 75.9905 33.5094C76.2945 33.8083 76.4477 34.206 76.4477 34.7026C76.4477 35.325 76.1751 35.7654 75.6301 36.026V36.0507C75.8688 36.1519 76.0513 36.3024 76.1774 36.5069C76.3035 36.7114 76.3688 36.9563 76.3688 37.2484V38.064C76.3688 38.264 76.3058 38.4168 76.1774 38.5224C76.0513 38.628 75.8643 38.6797 75.6211 38.6797V37.2933C75.6211 36.981 75.5513 36.7451 75.4116 36.5855C75.272 36.4237 75.0625 36.3428 74.7878 36.3428H72.9297V38.0618C72.9297 38.2618 72.8666 38.4146 72.7427 38.5202C72.6188 38.6258 72.4342 38.6775 72.1909 38.6775V33.4105ZM74.7405 35.698C75.031 35.698 75.263 35.6081 75.4342 35.4283C75.6053 35.2486 75.6909 35.0036 75.6909 34.6913C75.6909 34.379 75.6098 34.1318 75.4454 33.9633C75.281 33.7948 75.0445 33.7094 74.7382 33.7094H72.9274V35.698H74.7382H74.7405Z" fill="#042538"/>
<path d="M79.067 33.4105C79.067 33.3094 79.1031 33.2263 79.1774 33.1611C79.2517 33.096 79.3418 33.0623 79.4476 33.0623H82.9657C82.9657 33.2847 82.9206 33.4487 82.8305 33.5521C82.7404 33.6577 82.6008 33.7116 82.4094 33.7116H79.8125V35.4867H82.0355C82.0355 35.7092 81.9904 35.8732 81.9004 35.9766C81.8103 36.0822 81.6729 36.1339 81.4882 36.1339H79.8125V37.9562H82.576C82.7607 37.9562 82.8981 38.0079 82.9882 38.1135C83.0783 38.2191 83.1233 38.3831 83.1233 38.6056H79.4476C79.3418 38.6056 79.2517 38.5719 79.1774 38.5067C79.1031 38.4415 79.067 38.3584 79.067 38.2573V33.4105Z" fill="#042538"/>
<path d="M85.3621 38.4751C85.272 38.3718 85.2269 38.2459 85.2269 38.0999C85.2269 37.9988 85.2517 37.8931 85.299 37.783L87.1976 33.2284C87.2607 33.0711 87.3823 32.9902 87.5625 32.9902C87.7314 32.9902 87.8508 33.0689 87.9206 33.2284L89.817 37.783C89.8643 37.8931 89.8891 37.9988 89.8891 38.0999C89.8891 38.2414 89.844 38.3673 89.754 38.4729C89.6639 38.5785 89.54 38.6481 89.3801 38.6796L88.6977 37.0236H86.4184L85.7359 38.6796C85.5783 38.6481 85.4522 38.5807 85.3621 38.4774V38.4751ZM88.4657 36.3787L87.4409 33.7879L87.3778 33.8126L87.5197 34.1766L86.6458 36.3787H88.4634H88.4657Z" fill="#042538"/>
<path d="M92.504 38.4908C92.4275 38.4144 92.3892 38.3223 92.3892 38.219V33.6082C92.3892 33.197 92.6369 32.9902 93.1347 32.9902V37.9493H95.5716C95.7563 37.9493 95.9004 38.0055 95.9995 38.1201C96.1009 38.2347 96.1504 38.3965 96.1504 38.6077H92.7765C92.6707 38.6077 92.5783 38.5695 92.5018 38.4931L92.504 38.4908Z" fill="#042538"/>
<path d="M98.5739 33.6082C98.5739 33.4127 98.6392 33.2599 98.772 33.152C98.9049 33.0442 99.0874 32.9902 99.3193 32.9902L101.241 37.592L101.09 37.965L101.146 37.9898L103.177 32.9925C103.409 32.9925 103.594 33.0487 103.729 33.1588C103.864 33.2689 103.932 33.4217 103.932 33.6171V38.6796C103.441 38.6796 103.193 38.4774 103.193 38.0707V34.7361L103.4 34.1901L103.337 34.1744L101.567 38.4684C101.54 38.5313 101.497 38.583 101.441 38.6234C101.382 38.6639 101.322 38.6818 101.259 38.6818C101.191 38.6818 101.126 38.6639 101.069 38.6257C101.011 38.5897 100.968 38.5358 100.943 38.4661L99.1729 34.1654L99.1099 34.1901L99.3171 34.7294V38.0729C99.3171 38.2729 99.254 38.4257 99.1302 38.529C99.0063 38.6324 98.8216 38.6841 98.5784 38.6841V33.6149L98.5739 33.6082Z" fill="#042538"/>
<path d="M72.2383 21.7621C72.2383 21.661 72.2743 21.5778 72.3486 21.5127C72.423 21.4475 72.5131 21.4138 72.6189 21.4138H76.1369C76.1369 21.6363 76.0919 21.8003 76.0018 21.9037C75.9117 22.0093 75.7721 22.0632 75.5806 22.0632H72.9838V23.8383H75.2068C75.2068 24.0608 75.1617 24.2248 75.0716 24.3304C74.9815 24.436 74.8441 24.4877 74.6595 24.4877H72.9838V26.31H75.7473C75.932 26.31 76.0694 26.3617 76.1595 26.4673C76.2495 26.5729 76.2946 26.7369 76.2946 26.9594H72.6189C72.5131 26.9594 72.423 26.9257 72.3486 26.8605C72.2743 26.7953 72.2383 26.7122 72.2383 26.6111V21.7643V21.7621Z" fill="#042538"/>
<path d="M78.7969 21.9844C78.7969 21.7845 78.8599 21.6272 78.9838 21.5126C79.1077 21.398 79.2811 21.3418 79.5041 21.3418L82.5852 26.0155L82.6415 25.9683L82.4117 25.5886V21.3418C82.655 21.3418 82.8397 21.3957 82.9635 21.5013C83.0874 21.6069 83.1505 21.7597 83.1505 21.9597V26.4424C83.1505 26.611 83.0919 26.7503 82.9726 26.8626C82.8532 26.9727 82.7023 27.0289 82.5153 27.0289L79.3644 22.2518L79.3081 22.299L79.5379 22.6787V26.4087C79.5379 26.6087 79.4748 26.7615 79.3509 26.8671C79.2271 26.9727 79.0424 27.0244 78.7991 27.0244V21.9799L78.7969 21.9844Z" fill="#042538"/>
<path d="M86.8396 26.7795C86.4905 26.6132 86.218 26.3818 86.022 26.0829C85.8261 25.7841 85.7292 25.4448 85.7292 25.065V23.2899C85.7292 22.9102 85.8261 22.5709 86.0198 22.2765C86.2135 21.9799 86.4815 21.7507 86.8261 21.5867C87.1707 21.4227 87.5648 21.3418 88.0085 21.3418C88.4522 21.3418 88.8464 21.4115 89.191 21.5508C89.5356 21.6901 89.8036 21.8856 89.9973 22.1327C90.191 22.3799 90.2878 22.663 90.2878 22.9798C90.2878 23.1394 90.236 23.263 90.1301 23.3528C90.0243 23.4427 89.8846 23.4877 89.709 23.4877C89.6729 23.4877 89.6166 23.4832 89.5423 23.4719C89.5536 23.409 89.5581 23.3079 89.5581 23.1708C89.5581 22.9439 89.4928 22.7394 89.3644 22.5619C89.2337 22.3821 89.0513 22.2428 88.8171 22.1417C88.5806 22.0406 88.3126 21.9912 88.0108 21.9912C87.709 21.9912 87.45 22.0451 87.2157 22.153C86.9837 22.2608 86.8013 22.4136 86.6729 22.6113C86.5423 22.8091 86.4792 23.036 86.4792 23.2877V25.0628C86.4792 25.3167 86.5446 25.5436 86.6774 25.7436C86.8103 25.9436 86.995 26.1009 87.2338 26.211C87.4725 26.3211 87.7428 26.3773 88.0423 26.3773C88.3419 26.3773 88.6054 26.3278 88.8396 26.2267C89.0738 26.1256 89.2585 25.9841 89.3869 25.7998C89.5175 25.6156 89.5806 25.4066 89.5806 25.1729V24.7302H88.5806C88.4162 24.7302 88.2833 24.6741 88.1842 24.5595C88.0829 24.4449 88.0333 24.2966 88.0333 24.1123H89.9702C90.0761 24.1123 90.1617 24.1438 90.227 24.2067C90.2923 24.2696 90.3261 24.355 90.3261 24.4606V25.1819C90.3261 25.5414 90.2292 25.8605 90.0356 26.1413C89.8419 26.4222 89.5716 26.6402 89.2247 26.7952C88.8779 26.9503 88.4815 27.0289 88.0378 27.0289C87.5941 27.0289 87.1887 26.9458 86.8396 26.7795Z" fill="#042538"/>
<path d="M93.0626 21.9597C93.0626 21.7642 93.1279 21.6114 93.2563 21.5036C93.3869 21.3957 93.5694 21.3418 93.8081 21.3418V26.411C93.8081 26.6065 93.7428 26.7593 93.6144 26.8671C93.4838 26.975 93.3014 27.0289 93.0626 27.0289V21.9597Z" fill="#042538"/>
<path d="M96.6685 21.9844C96.6685 21.7845 96.7315 21.6272 96.8554 21.5126C96.9793 21.398 97.1527 21.3418 97.3757 21.3418L100.457 26.0155L100.513 25.9683L100.283 25.5886V21.3418C100.527 21.3418 100.711 21.3957 100.835 21.5013C100.959 21.6069 101.022 21.7597 101.022 21.9597V26.4424C101.022 26.611 100.964 26.7503 100.844 26.8626C100.725 26.9727 100.574 27.0289 100.387 27.0289L97.236 22.2518L97.1797 22.299L97.4094 22.6787V26.4087C97.4094 26.6087 97.3464 26.7615 97.2225 26.8671C97.0986 26.9727 96.914 27.0244 96.6707 27.0244V21.9799L96.6685 21.9844Z" fill="#042538"/>
<path d="M103.718 21.7621C103.718 21.661 103.754 21.5778 103.828 21.5127C103.903 21.4475 103.993 21.4138 104.099 21.4138H107.617C107.617 21.6363 107.572 21.8003 107.482 21.9037C107.391 22.0093 107.252 22.0632 107.06 22.0632H104.464V23.8383H106.686C106.686 24.0608 106.641 24.2248 106.551 24.3304C106.461 24.436 106.324 24.4877 106.139 24.4877H104.464V26.31H107.227C107.412 26.31 107.549 26.3617 107.639 26.4673C107.729 26.5729 107.774 26.7369 107.774 26.9594H104.099C103.993 26.9594 103.903 26.9257 103.828 26.8605C103.754 26.7953 103.718 26.7122 103.718 26.6111V21.7643V21.7621Z" fill="#042538"/>
<path d="M110.277 21.7621C110.277 21.661 110.313 21.5778 110.387 21.5127C110.461 21.4475 110.551 21.4138 110.657 21.4138H114.175C114.175 21.6363 114.13 21.8003 114.04 21.9037C113.95 22.0093 113.81 22.0632 113.619 22.0632H111.022V23.8383H113.245C113.245 24.0608 113.2 24.2248 113.11 24.3304C113.02 24.436 112.882 24.4877 112.698 24.4877H111.022V26.31H113.786C113.97 26.31 114.108 26.3617 114.198 26.4673C114.288 26.5729 114.333 26.7369 114.333 26.9594H110.657C110.551 26.9594 110.461 26.9257 110.387 26.8605C110.313 26.7953 110.277 26.7122 110.277 26.6111V21.7643V21.7621Z" fill="#042538"/>
<path d="M116.833 21.7621C116.833 21.661 116.869 21.5778 116.941 21.5127C117.013 21.4475 117.103 21.4138 117.214 21.4138H119.405C119.918 21.4138 120.326 21.5621 120.632 21.861C120.936 22.1598 121.09 22.5575 121.09 23.0541C121.09 23.6765 120.817 24.1192 120.272 24.3776V24.4023C120.511 24.5034 120.693 24.654 120.819 24.8584C120.946 25.0629 121.011 25.3078 121.011 25.5999V26.4156C121.011 26.6156 120.948 26.7684 120.819 26.874C120.693 26.9796 120.506 27.0313 120.263 27.0313V25.6449C120.263 25.3326 120.193 25.0966 120.054 24.9371C119.914 24.7753 119.705 24.6944 119.43 24.6944H117.572V26.4134C117.572 26.6133 117.509 26.7661 117.385 26.8717C117.261 26.9773 117.076 27.029 116.833 27.029V21.7621ZM119.382 24.0518C119.673 24.0518 119.905 23.9619 120.076 23.7821C120.247 23.6024 120.333 23.3575 120.333 23.0451C120.333 22.7328 120.252 22.4856 120.087 22.3171C119.923 22.1486 119.686 22.0632 119.38 22.0632H117.569V24.0518H119.38H119.382Z" fill="#042538"/>
<path d="M123.867 21.9597C123.867 21.7642 123.932 21.6114 124.06 21.5036C124.191 21.3957 124.373 21.3418 124.612 21.3418V26.411C124.612 26.6065 124.547 26.7593 124.419 26.8671C124.288 26.975 124.105 27.0289 123.867 27.0289V21.9597Z" fill="#042538"/>
<path d="M127.473 21.9844C127.473 21.7845 127.536 21.6272 127.659 21.5126C127.783 21.398 127.957 21.3418 128.18 21.3418L131.261 26.0155L131.317 25.9683L131.087 25.5886V21.3418C131.331 21.3418 131.515 21.3957 131.639 21.5013C131.763 21.6069 131.826 21.7597 131.826 21.9597V26.4424C131.826 26.611 131.768 26.7503 131.648 26.8626C131.529 26.9727 131.378 27.0289 131.193 27.0289L128.042 22.2518L127.986 22.299L128.216 22.6787V26.4087C128.216 26.6087 128.153 26.7615 128.029 26.8671C127.905 26.9727 127.72 27.0244 127.477 27.0244V21.9799L127.473 21.9844Z" fill="#042538"/>
<path d="M135.515 26.7795C135.166 26.6132 134.894 26.3818 134.698 26.0829C134.502 25.7841 134.403 25.4448 134.403 25.065V23.2899C134.403 22.9102 134.5 22.5709 134.693 22.2765C134.887 21.9799 135.155 21.7507 135.5 21.5867C135.844 21.4227 136.238 21.3418 136.682 21.3418C137.126 21.3418 137.52 21.4115 137.864 21.5508C138.209 21.6901 138.477 21.8856 138.671 22.1327C138.864 22.3799 138.961 22.663 138.961 22.9798C138.961 23.1394 138.909 23.263 138.804 23.3528C138.698 23.4427 138.558 23.4877 138.382 23.4877C138.346 23.4877 138.29 23.4832 138.216 23.4719C138.227 23.409 138.232 23.3079 138.232 23.1708C138.232 22.9439 138.166 22.7394 138.038 22.5619C137.907 22.3821 137.725 22.2428 137.491 22.1417C137.256 22.0406 136.986 21.9912 136.684 21.9912C136.382 21.9912 136.123 22.0451 135.889 22.153C135.657 22.2608 135.475 22.4136 135.344 22.6113C135.214 22.8091 135.15 23.036 135.15 23.2877V25.0628C135.15 25.3167 135.216 25.5436 135.349 25.7436C135.482 25.9436 135.666 26.1009 135.905 26.211C136.144 26.3211 136.414 26.3773 136.714 26.3773C137.013 26.3773 137.277 26.3278 137.511 26.2267C137.745 26.1256 137.927 25.9841 138.058 25.7998C138.189 25.6156 138.252 25.4066 138.252 25.1729V24.7302H137.252C137.087 24.7302 136.955 24.6741 136.855 24.5595C136.754 24.4449 136.705 24.2966 136.705 24.1123H138.641C138.747 24.1123 138.833 24.1438 138.9 24.2067C138.966 24.2696 139 24.355 139 24.4606V25.1819C139 25.5414 138.903 25.8605 138.709 26.1413C138.515 26.4222 138.245 26.6402 137.9 26.7952C137.554 26.9503 137.157 27.0289 136.714 27.0289C136.27 27.0289 135.864 26.9458 135.515 26.7795Z" fill="#042538"/>
</svg>
