<svg width="139" height="48" viewBox="0 0 139 48" fill="none" xmlns="http://www.w3.org/2000/svg">
<path d="M40.4995 0C44.754 0 48.9342 1.29875 52.3441 3.8356C54.1932 5.21075 55.9071 6.77914 57.4409 8.31832C62.0558 12.9516 65.04 19.1106 65.1707 25.5999C65.3216 33.0576 65.2382 40.5378 65.2112 47.9978H59.5535C59.5468 42.4747 59.5355 36.9538 59.558 31.4308C59.5693 28.3996 59.3689 25.3707 58.8779 22.3799C58.5535 20.4026 58.1008 18.4297 57.0535 16.6636C53.1842 10.1361 47.6909 5.49162 39.8103 5.51858H25.4477C23.6189 5.51184 21.9161 5.75901 20.3351 6.21964C15.1053 7.74984 11.1752 11.6506 8.20444 16.6614C7.15714 18.4275 6.70444 20.4003 6.38011 22.3777C5.88912 25.3684 5.68867 28.3973 5.69993 31.4285C5.72246 36.9493 5.71119 42.4724 5.70444 47.9955H0.0490313C0.019752 40.5355 -0.0635813 33.0531 0.0895718 25.5976C0.220202 19.1106 3.20444 12.9493 7.8193 8.31608C9.24047 6.88924 10.8193 5.43769 12.5152 4.13669C16.0265 1.44706 20.3396 0 24.7698 0H40.4972H40.4995Z" fill="white"/>
<path d="M16.5918 26.4312C16.6143 20.8587 20.9725 16.0794 26.8666 16.2434C30.5761 16.3468 34.2923 16.2187 38.0062 16.2682C42.9049 16.3333 47.9747 21.2317 48.2495 26.1099C48.254 26.1796 48.2517 26.2605 48.245 26.3414C48.2247 26.5863 48.1504 26.8514 48.0085 26.9481C47.1031 27.5637 46.1707 28.1412 45.2405 28.7164C44.763 29.013 44.1324 28.7659 43.986 28.2243L43.977 28.1906C42.9432 24.3438 40.6346 21.5598 36.6053 21.0542C34.1391 20.7441 26.9026 20.9891 23.5963 21.1104C23.1459 21.1261 22.79 21.4969 22.79 21.9463V24.91C22.79 25.3684 23.1571 25.7414 23.6143 25.7482C26.0288 25.7909 32.8013 25.9347 34.495 25.9594C37.263 25.9976 39.549 28.5299 39.2585 31.2668C39.2022 31.8015 39.0107 32.5093 38.6279 32.788C37.3058 33.7519 35.9274 34.6395 34.4387 35.6057C33.8779 35.9697 33.1369 35.5697 33.1369 34.9024V30.8893C33.1369 30.4309 32.7698 30.0579 32.3103 30.0511C31.4026 30.0377 30.1887 30.0084 29.3869 29.9882C28.9161 29.977 28.5355 30.3477 28.5355 30.8174C28.54 33.1879 28.5558 40.2142 28.5693 48H33.1008C33.1008 45.6047 33.0963 43.7487 33.0963 42.9196C33.0963 42.6252 33.2517 42.3534 33.504 42.2028L53.4387 30.2489C53.7247 30.0781 53.8824 29.7568 53.8396 29.4265C53.6729 28.094 53.227 24.6696 52.8981 23.3214C51.2607 16.6097 45.2044 11.4843 38.29 11.163C33.8914 10.9585 29.4747 11.1585 25.067 11.199C24.754 11.2012 24.2427 11.2394 23.9342 11.2956C16.6684 12.6236 11.3396 18.9331 11.3148 26.3211C11.29 33.5474 11.3283 40.7737 11.3058 48H16.5693C16.5693 40.8097 16.5625 33.6216 16.5941 26.4312H16.5918Z" fill="white"/>
<path d="M72.191 9.72047C72.191 9.61936 72.2271 9.53622 72.2991 9.47106C72.3712 9.4059 72.4613 9.37219 72.5717 9.37219H74.8892C75.2383 9.37219 75.5491 9.4441 75.8172 9.59015C76.0874 9.7362 76.2969 9.93843 76.4433 10.1991C76.5897 10.4597 76.6662 10.7608 76.6662 11.0979C76.6662 11.4349 76.5942 11.7517 76.4478 12.0169C76.3014 12.282 76.0942 12.4843 75.8239 12.6258C75.5536 12.7674 75.2428 12.8393 74.887 12.8393H72.9343V14.3672C72.9343 14.5672 72.8712 14.72 72.7428 14.8256C72.6167 14.9312 72.4298 14.9829 72.1865 14.9829V9.71598L72.191 9.72047ZM74.8892 12.1854C75.2068 12.1854 75.459 12.0888 75.6437 11.8956C75.8284 11.7023 75.9208 11.4372 75.9208 11.1001C75.9208 10.7631 75.8262 10.5137 75.6392 10.3204C75.4523 10.1272 75.2023 10.0306 74.8892 10.0306H72.9365V12.1854H74.8892Z" fill="white"/>
<path d="M79.1707 9.92047C79.1707 9.72049 79.2338 9.56769 79.3599 9.46209C79.486 9.35648 79.673 9.30255 79.9162 9.30255V11.7967H82.7338V9.92047C82.7338 9.72049 82.7968 9.56769 82.9252 9.46209C83.0513 9.35648 83.2383 9.30255 83.4815 9.30255V14.3717C83.4815 14.5717 83.4185 14.7245 83.2901 14.8301C83.1639 14.9357 82.977 14.9874 82.7338 14.9874V12.4528H79.9162V14.3695C79.9162 14.5695 79.8531 14.7223 79.7248 14.8279C79.5986 14.9335 79.4117 14.9852 79.1685 14.9852V9.91598L79.1707 9.92047Z" fill="white"/>
<path d="M87.0896 14.7313C86.7428 14.5605 86.4725 14.3223 86.2766 14.019C86.0806 13.7156 85.9838 13.3786 85.9838 13.0101V11.2687C85.9838 10.8979 86.0829 10.5654 86.2766 10.2665C86.4725 9.96766 86.745 9.73397 87.0896 9.56095C87.4365 9.39018 87.8284 9.30255 88.2676 9.30255C88.7067 9.30255 89.1076 9.38794 89.4545 9.56095C89.8013 9.73172 90.0716 9.96766 90.2676 10.2665C90.4635 10.5654 90.5603 10.8979 90.5603 11.2687V13.0101C90.5603 13.3808 90.4612 13.7156 90.2676 14.019C90.0716 14.3223 89.7991 14.5605 89.45 14.7313C89.1009 14.902 88.7067 14.9897 88.2676 14.9897C87.8284 14.9897 87.4342 14.9043 87.0896 14.7313ZM89.4207 13.974C89.6955 13.7313 89.8329 13.4055 89.8329 12.9988V11.2799C89.8329 10.8732 89.6955 10.5496 89.4207 10.3092C89.1459 10.0688 88.7608 9.94968 88.2698 9.94968C87.7788 9.94968 87.4004 10.071 87.1257 10.3092C86.8509 10.5496 86.7135 10.8732 86.7135 11.2799V12.9988C86.7135 13.4055 86.8509 13.7313 87.1257 13.974C87.4004 14.2167 87.7811 14.338 88.2698 14.338C88.7585 14.338 89.1459 14.2167 89.4207 13.974Z" fill="white"/>
<path d="M94.2068 10.0306H92.2699C92.2699 9.5924 92.4771 9.37219 92.8893 9.37219H96.8825C96.8825 9.81035 96.6753 10.0306 96.2631 10.0306H94.9523V14.3717C94.9523 14.5717 94.8893 14.7245 94.7609 14.8301C94.6348 14.9357 94.4478 14.9874 94.2046 14.9874V10.0283L94.2068 10.0306Z" fill="white"/>
<path d="M99.6978 14.7313C99.3509 14.5605 99.0807 14.3223 98.8847 14.019C98.6888 13.7156 98.5919 13.3786 98.5919 13.0101V11.2687C98.5919 10.8979 98.691 10.5654 98.8847 10.2665C99.0807 9.96766 99.3532 9.73397 99.6978 9.56095C100.045 9.39018 100.437 9.30255 100.876 9.30255C101.315 9.30255 101.716 9.38794 102.063 9.56095C102.409 9.73172 102.68 9.96766 102.876 10.2665C103.072 10.5654 103.168 10.8979 103.168 11.2687V13.0101C103.168 13.3808 103.069 13.7156 102.876 14.019C102.68 14.3223 102.407 14.5605 102.058 14.7313C101.709 14.902 101.315 14.9897 100.876 14.9897C100.437 14.9897 100.042 14.9043 99.6978 14.7313ZM102.027 13.974C102.301 13.7313 102.439 13.4055 102.439 12.9988V11.2799C102.439 10.8732 102.301 10.5496 102.027 10.3092C101.752 10.0688 101.367 9.94968 100.876 9.94968C100.385 9.94968 100.006 10.071 99.7316 10.3092C99.4568 10.5496 99.3194 10.8732 99.3194 11.2799V12.9988C99.3194 13.4055 99.4568 13.7313 99.7316 13.974C100.006 14.2167 100.387 14.338 100.876 14.338C101.364 14.338 101.752 14.2167 102.027 13.974Z" fill="white"/>
<path d="M105.671 9.94293C105.671 9.74295 105.734 9.58566 105.858 9.47106C105.982 9.35647 106.155 9.30029 106.378 9.30029L109.459 13.974L109.515 13.9268L109.286 13.5471V9.30029C109.529 9.30029 109.714 9.35422 109.837 9.45983C109.961 9.56544 110.024 9.71823 110.024 9.91821V14.4009C110.024 14.5695 109.966 14.7088 109.846 14.8211C109.727 14.9312 109.576 14.9874 109.392 14.9874L106.241 10.2103L106.184 10.2575L106.414 10.6372V14.3672C106.414 14.5672 106.351 14.72 106.227 14.8256C106.103 14.9312 105.919 14.9829 105.675 14.9829V9.93844L105.671 9.94293Z" fill="white"/>
<path d="M72.1909 33.4104C72.1909 33.3093 72.227 33.2262 72.299 33.161C72.3711 33.0958 72.4612 33.0621 72.5715 33.0621H74.763C75.2765 33.0621 75.6842 33.2104 75.9905 33.5093C76.2945 33.8081 76.4477 34.2058 76.4477 34.7024C76.4477 35.3248 76.1751 35.7653 75.6301 36.0259V36.0506C75.8688 36.1517 76.0513 36.3023 76.1774 36.5068C76.3035 36.7112 76.3688 36.9562 76.3688 37.2483V38.0639C76.3688 38.2639 76.3058 38.4167 76.1774 38.5223C76.0513 38.6279 75.8643 38.6796 75.6211 38.6796V37.2932C75.6211 36.9809 75.5513 36.7449 75.4116 36.5854C75.272 36.4236 75.0625 36.3427 74.7878 36.3427H72.9297V38.0617C72.9297 38.2616 72.8666 38.4144 72.7427 38.52C72.6188 38.6257 72.4342 38.6773 72.1909 38.6773V33.4104ZM74.7405 35.6978C75.031 35.6978 75.263 35.608 75.4342 35.4282C75.6053 35.2484 75.6909 35.0035 75.6909 34.6912C75.6909 34.3789 75.6098 34.1317 75.4454 33.9632C75.281 33.7946 75.0445 33.7093 74.7382 33.7093H72.9274V35.6978H74.7382H74.7405Z" fill="white"/>
<path d="M79.067 33.4104C79.067 33.3093 79.1031 33.2262 79.1774 33.161C79.2517 33.0958 79.3418 33.0621 79.4476 33.0621H82.9657C82.9657 33.2846 82.9206 33.4486 82.8305 33.552C82.7404 33.6576 82.6008 33.7115 82.4094 33.7115H79.8125V35.4866H82.0355C82.0355 35.7091 81.9904 35.8731 81.9004 35.9765C81.8103 36.0821 81.6729 36.1338 81.4882 36.1338H79.8125V37.9561H82.576C82.7607 37.9561 82.8981 38.0077 82.9882 38.1133C83.0783 38.219 83.1233 38.383 83.1233 38.6054H79.4476C79.3418 38.6054 79.2517 38.5717 79.1774 38.5066C79.1031 38.4414 79.067 38.3583 79.067 38.2572V33.4104Z" fill="white"/>
<path d="M85.3621 38.4751C85.272 38.3718 85.2269 38.2459 85.2269 38.0999C85.2269 37.9988 85.2517 37.8931 85.299 37.783L87.1976 33.2284C87.2607 33.0711 87.3823 32.9902 87.5625 32.9902C87.7314 32.9902 87.8508 33.0689 87.9206 33.2284L89.817 37.783C89.8643 37.8931 89.8891 37.9988 89.8891 38.0999C89.8891 38.2414 89.844 38.3673 89.754 38.4729C89.6639 38.5785 89.54 38.6481 89.3801 38.6796L88.6977 37.0236H86.4184L85.7359 38.6796C85.5783 38.6481 85.4522 38.5807 85.3621 38.4774V38.4751ZM88.4657 36.3787L87.4409 33.7879L87.3778 33.8126L87.5197 34.1766L86.6458 36.3787H88.4634H88.4657Z" fill="white"/>
<path d="M92.504 38.4908C92.4275 38.4144 92.3892 38.3223 92.3892 38.219V33.6082C92.3892 33.197 92.6369 32.9902 93.1347 32.9902V37.9493H95.5716C95.7563 37.9493 95.9004 38.0055 95.9995 38.1201C96.1009 38.2347 96.1504 38.3965 96.1504 38.6077H92.7765C92.6707 38.6077 92.5783 38.5695 92.5018 38.4931L92.504 38.4908Z" fill="white"/>
<path d="M98.5739 33.6082C98.5739 33.4127 98.6392 33.2599 98.772 33.152C98.9049 33.0442 99.0874 32.9902 99.3193 32.9902L101.241 37.592L101.09 37.965L101.146 37.9898L103.177 32.9925C103.409 32.9925 103.594 33.0487 103.729 33.1588C103.864 33.2689 103.932 33.4217 103.932 33.6171V38.6796C103.441 38.6796 103.193 38.4774 103.193 38.0707V34.7361L103.4 34.1901L103.337 34.1744L101.567 38.4684C101.54 38.5313 101.497 38.583 101.441 38.6234C101.382 38.6639 101.322 38.6818 101.259 38.6818C101.191 38.6818 101.126 38.6639 101.069 38.6257C101.011 38.5897 100.968 38.5358 100.943 38.4661L99.1729 34.1654L99.1099 34.1901L99.3171 34.7294V38.0729C99.3171 38.2729 99.254 38.4257 99.1302 38.529C99.0063 38.6324 98.8216 38.6841 98.5784 38.6841V33.6149L98.5739 33.6082Z" fill="white"/>
<path d="M72.2383 21.762C72.2383 21.6609 72.2743 21.5777 72.3486 21.5126C72.423 21.4474 72.5131 21.4137 72.6189 21.4137H76.1369C76.1369 21.6361 76.0919 21.8002 76.0018 21.9035C75.9117 22.0091 75.7721 22.0631 75.5806 22.0631H72.9838V23.8382H75.2068C75.2068 24.0606 75.1617 24.2247 75.0716 24.3303C74.9815 24.4359 74.8441 24.4876 74.6595 24.4876H72.9838V26.3099H75.7473C75.932 26.3099 76.0694 26.3615 76.1595 26.4672C76.2495 26.5728 76.2946 26.7368 76.2946 26.9592H72.6189C72.5131 26.9592 72.423 26.9255 72.3486 26.8604C72.2743 26.7952 72.2383 26.7121 72.2383 26.611V21.7642V21.762Z" fill="white"/>
<path d="M78.7969 21.9844C78.7969 21.7845 78.8599 21.6272 78.9838 21.5126C79.1077 21.398 79.2811 21.3418 79.5041 21.3418L82.5852 26.0155L82.6415 25.9683L82.4117 25.5886V21.3418C82.655 21.3418 82.8397 21.3957 82.9635 21.5013C83.0874 21.6069 83.1505 21.7597 83.1505 21.9597V26.4424C83.1505 26.611 83.0919 26.7503 82.9726 26.8626C82.8532 26.9727 82.7023 27.0289 82.5153 27.0289L79.3644 22.2518L79.3081 22.299L79.5379 22.6787V26.4087C79.5379 26.6087 79.4748 26.7615 79.3509 26.8671C79.2271 26.9727 79.0424 27.0244 78.7991 27.0244V21.9799L78.7969 21.9844Z" fill="white"/>
<path d="M86.8396 26.7795C86.4905 26.6132 86.218 26.3818 86.022 26.0829C85.8261 25.7841 85.7292 25.4448 85.7292 25.065V23.2899C85.7292 22.9102 85.8261 22.5709 86.0198 22.2765C86.2135 21.9799 86.4815 21.7507 86.8261 21.5867C87.1707 21.4227 87.5648 21.3418 88.0085 21.3418C88.4522 21.3418 88.8464 21.4115 89.191 21.5508C89.5356 21.6901 89.8036 21.8856 89.9973 22.1327C90.191 22.3799 90.2878 22.663 90.2878 22.9798C90.2878 23.1394 90.236 23.263 90.1301 23.3528C90.0243 23.4427 89.8846 23.4877 89.709 23.4877C89.6729 23.4877 89.6166 23.4832 89.5423 23.4719C89.5536 23.409 89.5581 23.3079 89.5581 23.1708C89.5581 22.9439 89.4928 22.7394 89.3644 22.5619C89.2337 22.3821 89.0513 22.2428 88.8171 22.1417C88.5806 22.0406 88.3126 21.9912 88.0108 21.9912C87.709 21.9912 87.45 22.0451 87.2157 22.153C86.9837 22.2608 86.8013 22.4136 86.6729 22.6113C86.5423 22.8091 86.4792 23.036 86.4792 23.2877V25.0628C86.4792 25.3167 86.5446 25.5436 86.6774 25.7436C86.8103 25.9436 86.995 26.1009 87.2338 26.211C87.4725 26.3211 87.7428 26.3773 88.0423 26.3773C88.3419 26.3773 88.6054 26.3278 88.8396 26.2267C89.0738 26.1256 89.2585 25.9841 89.3869 25.7998C89.5175 25.6156 89.5806 25.4066 89.5806 25.1729V24.7302H88.5806C88.4162 24.7302 88.2833 24.6741 88.1842 24.5595C88.0829 24.4449 88.0333 24.2966 88.0333 24.1123H89.9702C90.0761 24.1123 90.1617 24.1438 90.227 24.2067C90.2923 24.2696 90.3261 24.355 90.3261 24.4606V25.1819C90.3261 25.5414 90.2292 25.8605 90.0356 26.1413C89.8419 26.4222 89.5716 26.6402 89.2247 26.7952C88.8779 26.9503 88.4815 27.0289 88.0378 27.0289C87.5941 27.0289 87.1887 26.9458 86.8396 26.7795Z" fill="white"/>
<path d="M93.0626 21.9597C93.0626 21.7642 93.1279 21.6114 93.2563 21.5036C93.3869 21.3957 93.5694 21.3418 93.8081 21.3418V26.411C93.8081 26.6065 93.7428 26.7593 93.6144 26.8671C93.4838 26.975 93.3014 27.0289 93.0626 27.0289V21.9597Z" fill="white"/>
<path d="M96.6685 21.9844C96.6685 21.7845 96.7315 21.6272 96.8554 21.5126C96.9793 21.398 97.1527 21.3418 97.3757 21.3418L100.457 26.0155L100.513 25.9683L100.283 25.5886V21.3418C100.527 21.3418 100.711 21.3957 100.835 21.5013C100.959 21.6069 101.022 21.7597 101.022 21.9597V26.4424C101.022 26.611 100.964 26.7503 100.844 26.8626C100.725 26.9727 100.574 27.0289 100.387 27.0289L97.236 22.2518L97.1797 22.299L97.4094 22.6787V26.4087C97.4094 26.6087 97.3464 26.7615 97.2225 26.8671C97.0986 26.9727 96.914 27.0244 96.6707 27.0244V21.9799L96.6685 21.9844Z" fill="white"/>
<path d="M103.718 21.762C103.718 21.6609 103.754 21.5777 103.828 21.5126C103.903 21.4474 103.993 21.4137 104.099 21.4137H107.617C107.617 21.6361 107.572 21.8002 107.482 21.9035C107.391 22.0091 107.252 22.0631 107.06 22.0631H104.464V23.8382H106.686C106.686 24.0606 106.641 24.2247 106.551 24.3303C106.461 24.4359 106.324 24.4876 106.139 24.4876H104.464V26.3099H107.227C107.412 26.3099 107.549 26.3615 107.639 26.4672C107.729 26.5728 107.774 26.7368 107.774 26.9592H104.099C103.993 26.9592 103.903 26.9255 103.828 26.8604C103.754 26.7952 103.718 26.7121 103.718 26.611V21.7642V21.762Z" fill="white"/>
<path d="M110.277 21.762C110.277 21.6609 110.313 21.5777 110.387 21.5126C110.461 21.4474 110.551 21.4137 110.657 21.4137H114.175C114.175 21.6361 114.13 21.8002 114.04 21.9035C113.95 22.0091 113.81 22.0631 113.619 22.0631H111.022V23.8382H113.245C113.245 24.0606 113.2 24.2247 113.11 24.3303C113.02 24.4359 112.882 24.4876 112.698 24.4876H111.022V26.3099H113.786C113.97 26.3099 114.108 26.3615 114.198 26.4672C114.288 26.5728 114.333 26.7368 114.333 26.9592H110.657C110.551 26.9592 110.461 26.9255 110.387 26.8604C110.313 26.7952 110.277 26.7121 110.277 26.611V21.7642V21.762Z" fill="white"/>
<path d="M116.833 21.762C116.833 21.6609 116.869 21.5777 116.941 21.5126C117.013 21.4474 117.103 21.4137 117.214 21.4137H119.405C119.918 21.4137 120.326 21.562 120.632 21.8608C120.936 22.1597 121.09 22.5574 121.09 23.054C121.09 23.6764 120.817 24.1191 120.272 24.3775V24.4022C120.511 24.5033 120.693 24.6538 120.819 24.8583C120.946 25.0628 121.011 25.3077 121.011 25.5998V26.4155C121.011 26.6155 120.948 26.7682 120.819 26.8739C120.693 26.9795 120.506 27.0311 120.263 27.0311V25.6448C120.263 25.3324 120.193 25.0965 120.054 24.937C119.914 24.7752 119.705 24.6943 119.43 24.6943H117.572V26.4132C117.572 26.6132 117.509 26.766 117.385 26.8716C117.261 26.9772 117.076 27.0289 116.833 27.0289V21.762ZM119.382 24.0517C119.673 24.0517 119.905 23.9618 120.076 23.782C120.247 23.6023 120.333 23.3573 120.333 23.045C120.333 22.7327 120.252 22.4855 120.087 22.317C119.923 22.1485 119.686 22.0631 119.38 22.0631H117.569V24.0517H119.38H119.382Z" fill="white"/>
<path d="M123.867 21.9597C123.867 21.7642 123.932 21.6114 124.06 21.5036C124.191 21.3957 124.373 21.3418 124.612 21.3418V26.411C124.612 26.6065 124.547 26.7593 124.419 26.8671C124.288 26.975 124.105 27.0289 123.867 27.0289V21.9597Z" fill="white"/>
<path d="M127.473 21.9844C127.473 21.7845 127.536 21.6272 127.659 21.5126C127.783 21.398 127.957 21.3418 128.18 21.3418L131.261 26.0155L131.317 25.9683L131.087 25.5886V21.3418C131.331 21.3418 131.515 21.3957 131.639 21.5013C131.763 21.6069 131.826 21.7597 131.826 21.9597V26.4424C131.826 26.611 131.768 26.7503 131.648 26.8626C131.529 26.9727 131.378 27.0289 131.193 27.0289L128.042 22.2518L127.986 22.299L128.216 22.6787V26.4087C128.216 26.6087 128.153 26.7615 128.029 26.8671C127.905 26.9727 127.72 27.0244 127.477 27.0244V21.9799L127.473 21.9844Z" fill="white"/>
<path d="M135.515 26.7795C135.166 26.6132 134.894 26.3818 134.698 26.0829C134.502 25.7841 134.403 25.4448 134.403 25.065V23.2899C134.403 22.9102 134.5 22.5709 134.693 22.2765C134.887 21.9799 135.155 21.7507 135.5 21.5867C135.844 21.4227 136.238 21.3418 136.682 21.3418C137.126 21.3418 137.52 21.4115 137.864 21.5508C138.209 21.6901 138.477 21.8856 138.671 22.1327C138.864 22.3799 138.961 22.663 138.961 22.9798C138.961 23.1394 138.909 23.263 138.804 23.3528C138.698 23.4427 138.558 23.4877 138.382 23.4877C138.346 23.4877 138.29 23.4832 138.216 23.4719C138.227 23.409 138.232 23.3079 138.232 23.1708C138.232 22.9439 138.166 22.7394 138.038 22.5619C137.907 22.3821 137.725 22.2428 137.491 22.1417C137.256 22.0406 136.986 21.9912 136.684 21.9912C136.382 21.9912 136.123 22.0451 135.889 22.153C135.657 22.2608 135.475 22.4136 135.344 22.6113C135.214 22.8091 135.15 23.036 135.15 23.2877V25.0628C135.15 25.3167 135.216 25.5436 135.349 25.7436C135.482 25.9436 135.666 26.1009 135.905 26.211C136.144 26.3211 136.414 26.3773 136.714 26.3773C137.013 26.3773 137.277 26.3278 137.511 26.2267C137.745 26.1256 137.927 25.9841 138.058 25.7998C138.189 25.6156 138.252 25.4066 138.252 25.1729V24.7302H137.252C137.087 24.7302 136.955 24.6741 136.855 24.5595C136.754 24.4449 136.705 24.2966 136.705 24.1123H138.641C138.747 24.1123 138.833 24.1438 138.9 24.2067C138.966 24.2696 139 24.355 139 24.4606V25.1819C139 25.5414 138.903 25.8605 138.709 26.1413C138.515 26.4222 138.245 26.6402 137.9 26.7952C137.554 26.9503 137.157 27.0289 136.714 27.0289C136.27 27.0289 135.864 26.9458 135.515 26.7795Z" fill="white"/>
</svg>
